<?xml version="1.0" encoding="UTF-8"?>
<!DOCTYPE svg PUBLIC "-//W3C//DTD SVG 1.1//EN" "http://www.w3.org/Graphics/SVG/1.1/DTD/svg11.dtd">
<svg xmlns="http://www.w3.org/2000/svg" version="1.1" width="499px" height="499px" style="shape-rendering:geometricPrecision; text-rendering:geometricPrecision; image-rendering:optimizeQuality; fill-rule:evenodd; clip-rule:evenodd" xmlns:xlink="http://www.w3.org/1999/xlink">
<g><path style="opacity:0.149" fill="#8b989c" d="M 400.5,55.5 C 401.931,56.7804 402.598,58.4471 402.5,60.5C 401.069,59.2196 400.402,57.5529 400.5,55.5 Z"/></g>
<g><path style="opacity:0.243" fill="#aaaba9" d="M 184.5,61.5 C 183.22,62.9313 181.553,63.5979 179.5,63.5C 180.78,62.0687 182.447,61.4021 184.5,61.5 Z"/></g>
<g><path style="opacity:0.976" fill="#3b434d" d="M 283.5,61.5 C 289.392,63.1289 295.058,65.1289 300.5,67.5C 293.709,68.1207 288.043,66.1207 283.5,61.5 Z"/></g>
<g><path style="opacity:0.188" fill="#afb0b5" d="M 162.5,69.5 C 161.713,71.1042 160.38,71.7709 158.5,71.5C 159.514,70.3263 160.847,69.6596 162.5,69.5 Z"/></g>
<g><path style="opacity:0.059" fill="#b0b2b4" d="M 305.5,69.5 C 307.38,69.2291 308.713,69.8958 309.5,71.5C 307.847,71.3404 306.514,70.6737 305.5,69.5 Z"/></g>
<g><path style="opacity:1" fill="#05253a" d="M 391.5,136.5 C 391.5,136.833 391.5,137.167 391.5,137.5C 390.883,137.389 390.383,137.056 390,136.5C 388.911,140.717 386.244,143.384 382,144.5C 381.415,148.015 379.915,151.349 377.5,154.5C 376.035,155.737 374.368,156.737 372.5,157.5C 370.973,157.427 369.973,158.094 369.5,159.5C 363.138,163.451 356.138,165.784 348.5,166.5C 344.812,166.781 341.145,167.281 337.5,168C 340.014,169.252 342.68,169.752 345.5,169.5C 356.449,169.988 367.116,168.655 377.5,165.5C 370.706,185.392 357.706,199.726 338.5,208.5C 336.447,208.402 334.78,209.069 333.5,210.5C 318.744,213.96 303.744,215.46 288.5,215C 294.883,216.829 301.216,218.329 307.5,219.5C 315.702,220.444 324.036,221.444 332.5,222.5C 331.833,224.5 331.167,226.5 330.5,228.5C 327.978,228.128 325.978,228.961 324.5,231C 324.833,231.333 325.167,231.667 325.5,232C 324.552,232.483 323.552,232.649 322.5,232.5C 322.5,233.5 322.5,234.5 322.5,235.5C 321.5,235.5 320.5,235.5 319.5,235.5C 319.5,236.5 319.5,237.5 319.5,238.5C 316.376,238.943 314.043,240.61 312.5,243.5C 313.694,246.795 312.361,248.295 308.5,248C 309.167,248.333 309.833,248.667 310.5,249C 308.725,250.439 306.725,251.439 304.5,252C 305.684,253.145 305.684,254.312 304.5,255.5C 303.71,256.401 302.71,257.068 301.5,257.5C 299.973,257.427 298.973,258.094 298.5,259.5C 296.784,261.025 294.784,262.025 292.5,262.5C 288.22,261.46 283.887,261.294 279.5,262C 276.88,262.867 275.213,264.034 274.5,265.5C 272.431,265.215 271.098,264.048 270.5,262C 265.167,261.667 259.833,261.333 254.5,261C 253.975,260.308 253.308,259.808 252.5,259.5C 248.683,260.202 244.85,260.869 241,261.5C 237.722,260.168 234.389,258.835 231,257.5C 228.667,258.176 226.5,258.176 224.5,257.5C 223.201,258.09 222.368,259.09 222,260.5C 220.017,259.234 219.017,257.568 219,255.5C 221.185,254.33 223.351,253.164 225.5,252C 225.167,251.667 224.833,251.333 224.5,251C 226.757,247.321 229.59,244.155 233,241.5C 232.021,239.721 232.354,238.055 234,236.5C 235.364,237.258 236.531,236.758 237.5,235C 236.748,234.329 236.414,233.496 236.5,232.5C 236.833,231.833 237.167,231.167 237.5,230.5C 237.5,229.833 237.833,229.5 238.5,229.5C 240.587,228.415 241.92,226.749 242.5,224.5C 243.326,222.736 244.659,221.402 246.5,220.5C 247.833,219.833 248.833,218.833 249.5,217.5C 249.5,216.833 249.833,216.5 250.5,216.5C 251.833,215.833 252.833,214.833 253.5,213.5C 253.5,212.833 253.833,212.5 254.5,212.5C 255.833,211.833 256.833,210.833 257.5,209.5C 261.207,204.792 265.54,200.792 270.5,197.5C 272.749,196.92 274.415,195.587 275.5,193.5C 278.089,192.581 280.089,190.914 281.5,188.5C 296.609,175.116 312.275,162.45 328.5,150.5C 329.833,149.833 330.833,148.833 331.5,147.5C 339.14,140.194 346.807,132.861 354.5,125.5C 355.833,124.833 356.833,123.833 357.5,122.5C 357.557,121.391 357.89,120.391 358.5,119.5C 356.167,119.833 354.833,121.167 354.5,123.5C 347.852,128.476 341.185,133.476 334.5,138.5C 332.973,138.427 331.973,139.094 331.5,140.5C 325.95,145.625 319.95,150.291 313.5,154.5C 311.973,154.427 310.973,155.094 310.5,156.5C 306.785,160.537 302.452,163.87 297.5,166.5C 295.973,166.427 294.973,167.094 294.5,168.5C 285.191,176.137 275.858,183.803 266.5,191.5C 262.266,191.406 259.933,193.406 259.5,197.5C 259.167,197.5 258.833,197.5 258.5,197.5C 256.473,197.338 254.473,197.505 252.5,198C 251.167,199 251.167,200 252.5,201C 250.316,203.016 248.316,205.183 246.5,207.5C 242.251,205.842 241.584,206.676 244.5,210C 242.061,210.533 241.395,211.7 242.5,213.5C 239.728,213.595 237.728,214.929 236.5,217.5C 232.616,219.21 229.116,221.543 226,224.5C 225.405,225.899 225.572,227.232 226.5,228.5C 225.012,230.577 223.012,231.577 220.5,231.5C 219.908,234.127 219.575,236.794 219.5,239.5C 219.5,240.167 219.167,240.5 218.5,240.5C 216.738,241.262 215.738,242.596 215.5,244.5C 211.554,251.405 206.887,257.738 201.5,263.5C 198.92,259.763 197.087,260.43 196,265.5C 195.667,265.167 195.333,264.833 195,264.5C 194.167,266 193,267.167 191.5,268C 192.256,275.053 189.756,280.886 184,285.5C 181.167,280.774 178.334,276.107 175.5,271.5C 176.097,271.265 176.43,270.765 176.5,270C 175.464,263.971 174.131,258.138 172.5,252.5C 172.5,246.833 172.5,241.167 172.5,235.5C 173.924,233.485 174.59,231.152 174.5,228.5C 175.129,225.603 176.129,222.936 177.5,220.5C 178.674,219.486 179.34,218.153 179.5,216.5C 179.557,215.391 179.89,214.391 180.5,213.5C 181.906,213.027 182.573,212.027 182.5,210.5C 183.263,208.632 184.263,206.965 185.5,205.5C 188.626,203.84 190.293,201.174 190.5,197.5C 193.465,192.211 197.132,187.544 201.5,183.5C 202.833,182.833 203.833,181.833 204.5,180.5C 204.987,179.527 205.487,178.527 206,177.5C 209.771,174.041 213.605,170.708 217.5,167.5C 218.458,167.047 219.292,166.381 220,165.5C 220.173,171.348 220.673,177.015 221.5,182.5C 222.191,189.136 223.024,195.803 224,202.5C 225.125,197.715 226.292,193.049 227.5,188.5C 229.483,185.201 230.483,181.534 230.5,177.5C 230.5,177.167 230.5,176.833 230.5,176.5C 231.931,175.22 232.598,173.553 232.5,171.5C 239.141,154.229 250.807,141.563 267.5,133.5C 269.027,133.573 270.027,132.906 270.5,131.5C 285.773,122.741 301.439,114.741 317.5,107.5C 318.967,107.894 320.467,108.227 322,108.5C 323.834,107.164 325.834,106.164 328,105.5C 332.393,107.6 337.06,108.933 342,109.5C 342.5,109.167 343,108.833 343.5,108.5C 342.198,106.799 340.531,105.632 338.5,105C 339.973,104.29 340.64,103.124 340.5,101.5C 342.451,101.773 343.951,101.107 345,99.5C 346.087,101.932 346.587,101.598 346.5,98.5C 349.154,96.7126 351.987,95.0459 355,93.5C 355.423,94.9561 356.256,95.4561 357.5,95C 357.167,94.6667 356.833,94.3333 356.5,94C 358.107,92.951 358.773,91.451 358.5,89.5C 360.199,89.3398 361.866,89.5065 363.5,90C 364.308,91.7058 365.641,92.5391 367.5,92.5C 367.745,96.8807 369.745,97.714 373.5,95C 372.027,94.2904 371.36,93.1238 371.5,91.5C 375.653,92.0198 379.653,92.0198 383.5,91.5C 383.5,90.1667 383.5,88.8333 383.5,87.5C 380.028,87.8738 377.028,86.8738 374.5,84.5C 375.548,77.5355 378.048,76.8689 382,82.5C 387.636,78.9327 393.469,75.766 399.5,73C 397.263,71.1438 395.429,71.6438 394,74.5C 393.667,73.5 393.333,72.5 393,71.5C 392.333,72.8333 391.667,72.8333 391,71.5C 389.383,72.5358 389.216,73.7025 390.5,75C 387.792,75.2361 385.292,76.0695 383,77.5C 380.98,76.9681 380.147,75.6348 380.5,73.5C 382.199,73.6602 383.866,73.4935 385.5,73C 386.257,71.4878 387.257,70.1545 388.5,69C 391.242,67.9296 393.742,66.4296 396,64.5C 397.892,65.13 399.559,66.13 401,67.5C 403.088,76.0657 403.755,84.7324 403,93.5C 400.753,100.326 399.42,107.326 399,114.5C 396.665,119.796 394.331,125.129 392,130.5C 391.505,132.473 391.338,134.473 391.5,136.5 Z M 358.5,119.5 C 357.89,120.391 357.557,121.391 357.5,122.5C 356.391,122.557 355.391,122.89 354.5,123.5C 354.833,121.167 356.167,119.833 358.5,119.5 Z"/></g>
<g><path style="opacity:0.071" fill="#b9bbbc" d="M 314.5,73.5 C 316.027,73.427 317.027,74.0937 317.5,75.5C 315.973,75.573 314.973,74.9063 314.5,73.5 Z"/></g>
<g><path style="opacity:0.98" fill="#5d636c" d="M 317.5,75.5 C 320.915,76.1954 323.582,77.8621 325.5,80.5C 322.488,78.4976 319.155,77.331 315.5,77C 316.416,76.7216 317.082,76.2216 317.5,75.5 Z"/></g>
<g><path style="opacity:1" fill="#132839" d="M 400.5,55.5 C 400.402,57.5529 401.069,59.2196 402.5,60.5C 406.724,79.9696 405.724,99.303 399.5,118.5C 398.069,119.78 397.402,121.447 397.5,123.5C 396.491,126.049 395.658,128.715 395,131.5C 394.303,133.584 393.136,135.251 391.5,136.5C 391.338,134.473 391.505,132.473 392,130.5C 394.331,125.129 396.665,119.796 399,114.5C 399.42,107.326 400.753,100.326 403,93.5C 403.755,84.7324 403.088,76.0657 401,67.5C 399.559,66.13 397.892,65.13 396,64.5C 393.742,66.4296 391.242,67.9296 388.5,69C 387.257,70.1545 386.257,71.4878 385.5,73C 383.866,73.4935 382.199,73.6602 380.5,73.5C 380.147,75.6348 380.98,76.9681 383,77.5C 385.292,76.0695 387.792,75.2361 390.5,75C 389.216,73.7025 389.383,72.5358 391,71.5C 391.667,72.8333 392.333,72.8333 393,71.5C 393.333,72.5 393.667,73.5 394,74.5C 395.429,71.6438 397.263,71.1438 399.5,73C 393.469,75.766 387.636,78.9327 382,82.5C 378.048,76.8689 375.548,77.5355 374.5,84.5C 377.028,86.8738 380.028,87.8738 383.5,87.5C 383.5,88.8333 383.5,90.1667 383.5,91.5C 379.653,92.0198 375.653,92.0198 371.5,91.5C 371.36,93.1238 372.027,94.2904 373.5,95C 369.745,97.714 367.745,96.8807 367.5,92.5C 365.641,92.5391 364.308,91.7058 363.5,90C 361.866,89.5065 360.199,89.3398 358.5,89.5C 358.773,91.451 358.107,92.951 356.5,94C 356.833,94.3333 357.167,94.6667 357.5,95C 356.256,95.4561 355.423,94.9561 355,93.5C 351.987,95.0459 349.154,96.7126 346.5,98.5C 346.587,101.598 346.087,101.932 345,99.5C 343.951,101.107 342.451,101.773 340.5,101.5C 340.64,103.124 339.973,104.29 338.5,105C 340.531,105.632 342.198,106.799 343.5,108.5C 343,108.833 342.5,109.167 342,109.5C 337.06,108.933 332.393,107.6 328,105.5C 325.834,106.164 323.834,107.164 322,108.5C 320.467,108.227 318.967,107.894 317.5,107.5C 321.907,104.965 326.573,102.965 331.5,101.5C 334.346,101.448 336.68,100.448 338.5,98.5C 340.645,97.0115 342.978,96.0115 345.5,95.5C 347.027,95.573 348.027,94.9063 348.5,93.5C 367.239,82.2699 384.405,68.9365 400,53.5C 400.464,54.0944 400.631,54.7611 400.5,55.5 Z"/></g>
<g><path style="opacity:0.063" fill="#c9cacd" d="M 325.5,92.5 C 324.713,94.1042 323.38,94.7709 321.5,94.5C 322.514,93.3263 323.847,92.6596 325.5,92.5 Z"/></g>
<g><path style="opacity:0.322" fill="#9ca0a7" d="M 348.5,93.5 C 348.027,94.9063 347.027,95.573 345.5,95.5C 345.973,94.0937 346.973,93.427 348.5,93.5 Z"/></g>
<g><path style="opacity:0.325" fill="#787884" d="M 338.5,98.5 C 336.68,100.448 334.346,101.448 331.5,101.5C 333.426,99.7073 335.759,98.7073 338.5,98.5 Z"/></g>
<g><path style="opacity:1" fill="#414b57" d="M 118.5,98.5 C 117.71,99.7942 116.71,100.961 115.5,102C 117.301,102.317 117.634,102.984 116.5,104C 115.167,104 113.833,104 112.5,104C 111.517,106.984 109.517,108.817 106.5,109.5C 109.34,104.469 113.34,100.803 118.5,98.5 Z"/></g>
<g><path style="opacity:0.008" fill="#c9cccf" d="M 144.5,109.5 C 144.027,110.906 143.027,111.573 141.5,111.5C 141.973,110.094 142.973,109.427 144.5,109.5 Z"/></g>
<g><path style="opacity:0.141" fill="#adb8c3" d="M 361.5,117.5 C 361.5,116.833 361.167,116.5 360.5,116.5C 361.458,115.038 362.624,113.705 364,112.5C 363.903,114.459 363.07,116.125 361.5,117.5 Z"/></g>
<g><path style="opacity:0.992" fill="#3b454f" d="M 141.5,111.5 C 132.466,119.201 124.133,127.534 116.5,136.5C 116.586,135.504 116.252,134.671 115.5,134C 116.448,133.517 117.448,133.351 118.5,133.5C 118.841,130.484 120.007,127.818 122,125.5C 123.11,123.963 124.61,123.297 126.5,123.5C 126.5,122.5 126.5,121.5 126.5,120.5C 127.675,120.719 128.675,120.386 129.5,119.5C 130.585,117.123 131.752,114.789 133,112.5C 135.454,114.013 137.121,113.346 138,110.5C 139.011,111.337 140.178,111.67 141.5,111.5 Z"/></g>
<g><path style="opacity:0.302" fill="#999da0" d="M 399.5,118.5 C 399.598,120.553 398.931,122.22 397.5,123.5C 397.402,121.447 398.069,119.78 399.5,118.5 Z"/></g>
<g><path style="opacity:1" fill="#0a263a" d="M 283.5,61.5 C 288.043,66.1207 293.709,68.1207 300.5,67.5C 302.284,67.8925 303.95,68.5592 305.5,69.5C 306.514,70.6737 307.847,71.3404 309.5,71.5C 311.284,71.8925 312.95,72.5592 314.5,73.5C 314.973,74.9063 315.973,75.573 317.5,75.5C 317.082,76.2216 316.416,76.7216 315.5,77C 319.155,77.331 322.488,78.4976 325.5,80.5C 329.957,81.6303 333.624,83.9637 336.5,87.5C 335.91,88.7989 334.91,89.6322 333.5,90C 330.715,90.6575 328.049,91.4909 325.5,92.5C 323.847,92.6596 322.514,93.3263 321.5,94.5C 316.936,97.9173 311.936,99.2506 306.5,98.5C 306.027,97.0937 305.027,96.427 303.5,96.5C 301.833,95.8333 300.167,95.1667 298.5,94.5C 298.027,93.0937 297.027,92.427 295.5,92.5C 254.886,76.5034 214.219,76.5034 173.5,92.5C 171.973,92.427 170.973,93.0937 170.5,94.5C 161.354,98.6409 152.687,103.641 144.5,109.5C 142.973,109.427 141.973,110.094 141.5,111.5C 140.178,111.67 139.011,111.337 138,110.5C 137.121,113.346 135.454,114.013 133,112.5C 131.752,114.789 130.585,117.123 129.5,119.5C 128.675,120.386 127.675,120.719 126.5,120.5C 126.5,121.5 126.5,122.5 126.5,123.5C 124.61,123.297 123.11,123.963 122,125.5C 120.007,127.818 118.841,130.484 118.5,133.5C 117.448,133.351 116.448,133.517 115.5,134C 116.252,134.671 116.586,135.504 116.5,136.5C 115.833,136.5 115.5,136.833 115.5,137.5C 113.738,138.262 112.738,139.596 112.5,141.5C 110.735,144.709 108.735,147.709 106.5,150.5C 105.094,150.973 104.427,151.973 104.5,153.5C 103.833,154.833 103.167,156.167 102.5,157.5C 101.094,157.973 100.427,158.973 100.5,160.5C 99.5592,162.05 98.8925,163.716 98.5,165.5C 97.0937,165.973 96.427,166.973 96.5,168.5C 94.7853,174.264 92.7853,179.93 90.5,185.5C 88.9261,187.102 88.2594,189.102 88.5,191.5C 81.1228,221.781 82.1228,251.781 91.5,281.5C 91.2291,283.38 91.8958,284.713 93.5,285.5C 96.6461,292.947 99.9794,300.28 103.5,307.5C 103.427,309.027 104.094,310.027 105.5,310.5C 105.427,312.027 106.094,313.027 107.5,313.5C 108.401,314.29 109.068,315.29 109.5,316.5C 109.427,318.027 110.094,319.027 111.5,319.5C 111.738,321.404 112.738,322.738 114.5,323.5C 120.176,329.177 125.509,335.177 130.5,341.5C 128.199,342.06 125.866,342.56 123.5,343C 124.654,343.914 124.487,344.747 123,345.5C 122.667,345.167 122.333,344.833 122,344.5C 121.517,345.448 121.351,346.448 121.5,347.5C 119.5,347.5 117.5,347.5 115.5,347.5C 115.5,345.5 115.5,343.5 115.5,341.5C 117.199,341.66 118.866,341.494 120.5,341C 119.715,339.457 119.715,337.79 120.5,336C 120.333,335.167 120.167,334.333 120,333.5C 118.333,332.5 116.667,331.5 115,330.5C 113.958,334.548 113.624,338.548 114,342.5C 112.055,344.181 110.055,344.848 108,344.5C 107.192,346.579 107.359,348.579 108.5,350.5C 109.333,349.5 110.167,348.5 111,347.5C 111.492,348.549 111.326,349.549 110.5,350.5C 112.742,352.795 112.742,354.795 110.5,356.5C 101.515,348.873 94.1814,339.873 88.5,329.5C 87.8553,327.174 86.522,325.507 84.5,324.5C 83.6618,324.158 83.3284,323.492 83.5,322.5C 83.573,320.973 82.9063,319.973 81.5,319.5C 75.8228,310.482 71.4895,300.815 68.5,290.5C 67.8617,288.54 67.8617,286.707 68.5,285C 67.3094,284.302 66.3094,283.469 65.5,282.5C 64.962,280.883 64.6287,279.216 64.5,277.5C 64.5905,274.848 63.9238,272.515 62.5,270.5C 55.5065,240.353 56.5065,210.353 65.5,180.5C 67.5848,178.316 68.5848,175.649 68.5,172.5C 69.6029,167.628 71.2696,162.962 73.5,158.5C 74.9063,158.027 75.573,157.027 75.5,155.5C 75.8925,153.716 76.5592,152.05 77.5,150.5C 78.9063,150.027 79.573,149.027 79.5,147.5C 79.9925,145.181 80.9925,143.181 82.5,141.5C 83.9063,141.027 84.573,140.027 84.5,138.5C 90.3318,127.672 97.6652,118.005 106.5,109.5C 109.517,108.817 111.517,106.984 112.5,104C 113.833,104 115.167,104 116.5,104C 117.634,102.984 117.301,102.317 115.5,102C 116.71,100.961 117.71,99.7942 118.5,98.5C 130.052,87.0429 143.385,78.0429 158.5,71.5C 160.38,71.7709 161.713,71.1042 162.5,69.5C 167.897,66.7342 173.563,64.7342 179.5,63.5C 181.553,63.5979 183.22,62.9313 184.5,61.5C 217.583,52.1963 250.583,52.1963 283.5,61.5 Z"/></g>
<g><path style="opacity:0.098" fill="#c3c5ca" d="M 303.5,96.5 C 305.027,96.427 306.027,97.0937 306.5,98.5C 304.973,98.573 303.973,97.9063 303.5,96.5 Z"/></g>
<g><path style="opacity:0.075" fill="#cacccc" d="M 295.5,92.5 C 297.027,92.427 298.027,93.0937 298.5,94.5C 296.973,94.573 295.973,93.9063 295.5,92.5 Z"/></g>
<g><path style="opacity:0.004" fill="#d6d7dc" d="M 173.5,92.5 C 173.027,93.9063 172.027,94.573 170.5,94.5C 170.973,93.0937 171.973,92.427 173.5,92.5 Z"/></g>
<g><path style="opacity:0.176" fill="#9c9ca0" d="M 357.5,122.5 C 356.833,123.833 355.833,124.833 354.5,125.5C 354.5,124.833 354.5,124.167 354.5,123.5C 355.391,122.89 356.391,122.557 357.5,122.5 Z"/></g>
<g><path style="opacity:0.286" fill="#94979f" d="M 270.5,131.5 C 270.027,132.906 269.027,133.573 267.5,133.5C 267.973,132.094 268.973,131.427 270.5,131.5 Z"/></g>
<g><path style="opacity:0.004" fill="#c7c8c9" d="M 115.5,137.5 C 115.262,139.404 114.262,140.738 112.5,141.5C 112.738,139.596 113.738,138.262 115.5,137.5 Z"/></g>
<g><path style="opacity:0.004" fill="#d3d4d6" d="M 334.5,138.5 C 334.027,139.906 333.027,140.573 331.5,140.5C 331.973,139.094 332.973,138.427 334.5,138.5 Z"/></g>
<g><path style="opacity:0.118" fill="#b1b7b9" d="M 84.5,138.5 C 84.573,140.027 83.9063,141.027 82.5,141.5C 82.427,139.973 83.0937,138.973 84.5,138.5 Z"/></g>
<g><path style="opacity:0.996" fill="#404954" d="M 391.5,137.5 C 388.338,144.336 383.671,150.003 377.5,154.5C 379.915,151.349 381.415,148.015 382,144.5C 386.244,143.384 388.911,140.717 390,136.5C 390.383,137.056 390.883,137.389 391.5,137.5 Z"/></g>
<g><path style="opacity:0.067" fill="#cacbc5" d="M 79.5,147.5 C 79.573,149.027 78.9063,150.027 77.5,150.5C 77.427,148.973 78.0937,147.973 79.5,147.5 Z"/></g>
<g><path style="opacity:0.365" fill="#adafb2" d="M 331.5,147.5 C 330.833,148.833 329.833,149.833 328.5,150.5C 328.5,148.5 329.5,147.5 331.5,147.5 Z"/></g>
<g><path style="opacity:0.031" fill="#bcbec1" d="M 106.5,150.5 C 106.573,152.027 105.906,153.027 104.5,153.5C 104.427,151.973 105.094,150.973 106.5,150.5 Z"/></g>
<g><path style="opacity:0.024" fill="#c0c0c2" d="M 313.5,154.5 C 313.027,155.906 312.027,156.573 310.5,156.5C 310.973,155.094 311.973,154.427 313.5,154.5 Z"/></g>
<g><path style="opacity:0.063" fill="#cacccd" d="M 75.5,155.5 C 75.573,157.027 74.9063,158.027 73.5,158.5C 73.427,156.973 74.0937,155.973 75.5,155.5 Z"/></g>
<g><path style="opacity:0.004" fill="#bbbdc4" d="M 372.5,157.5 C 372.027,158.906 371.027,159.573 369.5,159.5C 369.973,158.094 370.973,157.427 372.5,157.5 Z"/></g>
<g><path style="opacity:0.161" fill="#b7b7b2" d="M 394.5,160.5 C 393.778,160.082 393.278,159.416 393,158.5C 392.617,159.056 392.117,159.389 391.5,159.5C 391.821,157.952 392.821,157.285 394.5,157.5C 394.5,158.5 394.5,159.5 394.5,160.5 Z"/></g>
<g><path style="opacity:0.047" fill="#aeafb3" d="M 102.5,157.5 C 102.573,159.027 101.906,160.027 100.5,160.5C 100.427,158.973 101.094,157.973 102.5,157.5 Z"/></g>
<g><path style="opacity:0.059" fill="#afafb0" d="M 221.5,182.5 C 220.673,177.015 220.173,171.348 220,165.5C 219.292,166.381 218.458,167.047 217.5,167.5C 217.694,165.088 219.027,164.088 221.5,164.5C 221.5,170.5 221.5,176.5 221.5,182.5 Z"/></g>
<g><path style="opacity:0.133" fill="#adb3b5" d="M 389.5,164.5 C 389.5,165.167 389.5,165.833 389.5,166.5C 388.833,166.833 388.167,167.167 387.5,167.5C 387.427,165.973 388.094,164.973 389.5,164.5 Z"/></g>
<g><path style="opacity:0.082" fill="#b2b2b3" d="M 98.5,165.5 C 98.573,167.027 97.9063,168.027 96.5,168.5C 96.427,166.973 97.0937,165.973 98.5,165.5 Z"/></g>
<g><path style="opacity:0.024" fill="#c0c2c3" d="M 297.5,166.5 C 297.027,167.906 296.027,168.573 294.5,168.5C 294.973,167.094 295.973,166.427 297.5,166.5 Z"/></g>
<g><path style="opacity:0.098" fill="#bdc5c9" d="M 348.5,166.5 C 347.391,167.29 346.058,167.79 344.5,168C 345.056,168.383 345.389,168.883 345.5,169.5C 342.68,169.752 340.014,169.252 337.5,168C 341.145,167.281 344.812,166.781 348.5,166.5 Z"/></g>
<g><path style="opacity:0.031" fill="#c1c3c7" d="M 397.5,168.5 C 399.104,169.287 399.771,170.62 399.5,172.5C 398.326,171.486 397.66,170.153 397.5,168.5 Z"/></g>
<g><path style="opacity:0.102" fill="#bebfc7" d="M 232.5,171.5 C 232.598,173.553 231.931,175.22 230.5,176.5C 230.402,174.447 231.069,172.78 232.5,171.5 Z"/></g>
<g><path style="opacity:0.6" fill="#7e858b" d="M 68.5,172.5 C 68.5848,175.649 67.5848,178.316 65.5,180.5C 65.9802,177.557 66.9802,174.89 68.5,172.5 Z"/></g>
<g><path style="opacity:0.196" fill="#a3a6a7" d="M 204.5,180.5 C 203.833,181.833 202.833,182.833 201.5,183.5C 201.5,181.5 202.5,180.5 204.5,180.5 Z"/></g>
<g><path style="opacity:0.11" fill="#a9afb7" d="M 381.5,180.5 C 381.573,182.027 380.906,183.027 379.5,183.5C 379.427,181.973 380.094,180.973 381.5,180.5 Z"/></g>
<g><path style="opacity:1" fill="#042439" d="M 394.5,160.5 C 395.494,163.124 396.494,165.79 397.5,168.5C 397.66,170.153 398.326,171.486 399.5,172.5C 403.217,181.127 405.55,190.127 406.5,199.5C 405.732,198.737 405.232,197.737 405,196.5C 406.038,208.106 406.872,219.773 407.5,231.5C 406.454,246.586 404.787,261.586 402.5,276.5C 401.178,276.33 400.011,276.663 399,277.5C 398.86,280.281 397.694,282.447 395.5,284C 396.448,284.483 397.448,284.649 398.5,284.5C 398.5,285.5 398.5,286.5 398.5,287.5C 395.45,286.923 393.45,288.09 392.5,291C 393.051,292.398 393.384,293.732 393.5,295C 392.039,297.421 390.706,299.921 389.5,302.5C 389.075,304.149 389.075,305.983 389.5,308C 386.534,311.802 384.201,315.969 382.5,320.5C 383.127,321.417 383.461,322.417 383.5,323.5C 381.327,327.852 378.66,331.852 375.5,335.5C 374.094,335.973 373.427,336.973 373.5,338.5C 371.049,342.124 368.383,345.624 365.5,349C 369.369,353.037 373.369,356.87 377.5,360.5C 381.5,359.167 385.5,359.167 389.5,360.5C 402.807,373.473 416.14,386.473 429.5,399.5C 428.588,400.738 428.421,402.072 429,403.5C 429.333,403.167 429.667,402.833 430,402.5C 431.667,405.5 434,407.833 437,409.5C 437.483,410.448 437.649,411.448 437.5,412.5C 438.833,412.5 440.167,412.5 441.5,412.5C 441.808,416.009 443.808,417.676 447.5,417.5C 449.167,418.5 450.5,419.833 451.5,421.5C 451.294,423.549 450.461,423.883 449,422.5C 448.5,423 448,423.5 447.5,424C 447.693,425.645 447.86,427.479 448,429.5C 450.667,432.167 453.333,432.167 456,429.5C 456.5,430 457,430.5 457.5,431C 454.888,433.151 454.888,433.985 457.5,433.5C 459.163,436.839 461.83,438.506 465.5,438.5C 466.363,447.477 464.529,455.81 460,463.5C 459.692,462.692 459.192,462.025 458.5,461.5C 457.315,462.853 455.981,464.02 454.5,465C 455.823,465.816 456.489,466.983 456.5,468.5C 452.909,472.064 448.575,474.398 443.5,475.5C 439.865,476.114 436.198,476.448 432.5,476.5C 429.759,476.293 427.426,475.293 425.5,473.5C 425.167,472.5 424.5,471.833 423.5,471.5C 422.833,471.5 422.5,471.167 422.5,470.5C 421.833,469.167 420.833,468.167 419.5,467.5C 396.697,446.202 374.197,424.202 352,401.5C 349.968,396.919 350.135,392.419 352.5,388C 350.859,386.871 349.859,385.371 349.5,383.5C 349.047,382.542 348.381,381.708 347.5,381C 349.085,380.915 350.418,380.749 351.5,380.5C 347.172,379.34 343.839,376.84 341.5,373C 339.782,372.654 338.115,372.154 336.5,371.5C 334.929,373.415 332.929,374.415 330.5,374.5C 330.5,375.833 330.5,377.167 330.5,378.5C 330.158,379.338 329.492,379.672 328.5,379.5C 325.511,380.635 322.511,380.802 319.5,380C 316.615,381.69 313.949,383.69 311.5,386C 309.482,386.505 307.482,387.005 305.5,387.5C 305.762,386.022 305.429,384.689 304.5,383.5C 301.512,383.29 298.512,382.956 295.5,382.5C 297.813,381.727 300.146,381.06 302.5,380.5C 303.386,379.675 303.719,378.675 303.5,377.5C 302.167,377.5 300.833,377.5 299.5,377.5C 299.33,376.178 299.663,375.011 300.5,374C 298.009,373.374 298.009,372.541 300.5,371.5C 299.799,369.808 300.133,368.142 301.5,366.5C 314.302,359.118 326.302,350.784 337.5,341.5C 339.167,340.5 340.5,339.167 341.5,337.5C 343.773,334.223 346.44,331.223 349.5,328.5C 351.587,327.415 352.92,325.749 353.5,323.5C 354.786,320.883 356.453,318.55 358.5,316.5C 360.737,315.186 363.071,314.02 365.5,313C 364.131,310.761 364.631,308.927 367,307.5C 367.333,308.167 367.667,308.833 368,309.5C 368.333,307.5 368.667,305.5 369,303.5C 372.023,299.391 374.69,295.058 377,290.5C 377.333,287.5 377.667,284.5 378,281.5C 378.5,279.667 379.667,278.5 381.5,278C 381.167,277.667 380.833,277.333 380.5,277C 381.079,273.861 382.079,270.861 383.5,268C 382.931,259.321 384.264,250.821 387.5,242.5C 386.167,235.167 386.167,227.833 387.5,220.5C 384.755,213.467 384.088,206.301 385.5,199C 381.318,194.044 380.485,188.544 383,182.5C 387.005,181.197 388.172,178.697 386.5,175C 387.367,172.104 388.367,169.271 389.5,166.5C 389.5,165.833 389.5,165.167 389.5,164.5C 389.796,162.597 390.463,160.93 391.5,159.5C 392.117,159.389 392.617,159.056 393,158.5C 393.278,159.416 393.778,160.082 394.5,160.5 Z"/></g>
<g><path style="opacity:0.58" fill="#6a7275" d="M 230.5,177.5 C 230.483,181.534 229.483,185.201 227.5,188.5C 227.926,184.573 228.926,180.907 230.5,177.5 Z"/></g>
<g><path style="opacity:0.18" fill="#bcbfc2" d="M 90.5,185.5 C 90.405,187.786 89.7384,189.786 88.5,191.5C 88.2594,189.102 88.9261,187.102 90.5,185.5 Z"/></g>
<g><path style="opacity:0.506" fill="#6c7375" d="M 281.5,188.5 C 280.089,190.914 278.089,192.581 275.5,193.5C 276.911,191.086 278.911,189.419 281.5,188.5 Z"/></g>
<g><path style="opacity:0.757" fill="#535b60" d="M 266.5,191.5 C 264.192,193.471 261.858,195.471 259.5,197.5C 259.933,193.406 262.266,191.406 266.5,191.5 Z"/></g>
<g><path style="opacity:0.502" fill="#757980" d="M 275.5,193.5 C 274.415,195.587 272.749,196.92 270.5,197.5C 271.585,195.413 273.251,194.08 275.5,193.5 Z"/></g>
<g><path style="opacity:0.945" fill="#596168" d="M 190.5,197.5 C 190.293,201.174 188.626,203.84 185.5,205.5C 186.719,202.507 188.386,199.84 190.5,197.5 Z"/></g>
<g><path style="opacity:0.506" fill="#303b46" d="M 258.5,197.5 C 253.5,203.167 248.167,208.5 242.5,213.5C 241.395,211.7 242.061,210.533 244.5,210C 241.584,206.676 242.251,205.842 246.5,207.5C 248.316,205.183 250.316,203.016 252.5,201C 251.167,200 251.167,199 252.5,198C 254.473,197.505 256.473,197.338 258.5,197.5 Z"/></g>
<g><path style="opacity:0.027" fill="#d9d0d2" d="M 338.5,208.5 C 337.22,209.931 335.553,210.598 333.5,210.5C 334.78,209.069 336.447,208.402 338.5,208.5 Z"/></g>
<g><path style="opacity:0.149" fill="#a5a5a7" d="M 257.5,209.5 C 256.833,210.833 255.833,211.833 254.5,212.5C 254.5,210.5 255.5,209.5 257.5,209.5 Z"/></g>
<g><path style="opacity:0.059" fill="#c2c4c6" d="M 182.5,210.5 C 182.573,212.027 181.906,213.027 180.5,213.5C 180.427,211.973 181.094,210.973 182.5,210.5 Z"/></g>
<g><path style="opacity:0.2" fill="#a0a3a6" d="M 253.5,213.5 C 252.833,214.833 251.833,215.833 250.5,216.5C 250.5,214.5 251.5,213.5 253.5,213.5 Z"/></g>
<g><path style="opacity:0.09" fill="#a4a5a7" d="M 179.5,216.5 C 179.34,218.153 178.674,219.486 177.5,220.5C 177.229,218.62 177.896,217.287 179.5,216.5 Z"/></g>
<g><path style="opacity:0.149" fill="#a3a5a9" d="M 249.5,217.5 C 248.833,218.833 247.833,219.833 246.5,220.5C 246.5,218.5 247.5,217.5 249.5,217.5 Z"/></g>
<g><path style="opacity:1" fill="#2c3945" d="M 242.5,213.5 C 234.805,222.192 227.138,230.859 219.5,239.5C 219.575,236.794 219.908,234.127 220.5,231.5C 223.012,231.577 225.012,230.577 226.5,228.5C 225.572,227.232 225.405,225.899 226,224.5C 229.116,221.543 232.616,219.21 236.5,217.5C 237.728,214.929 239.728,213.595 242.5,213.5 Z"/></g>
<g><path style="opacity:0.506" fill="#858487" d="M 242.5,224.5 C 241.92,226.749 240.587,228.415 238.5,229.5C 239.08,227.251 240.413,225.585 242.5,224.5 Z"/></g>
<g><path style="opacity:0.067" fill="#bfc1c3" d="M 174.5,228.5 C 174.59,231.152 173.924,233.485 172.5,235.5C 172.41,232.848 173.076,230.515 174.5,228.5 Z"/></g>
<g><path style="opacity:0.102" fill="#b8bec4" d="M 237.5,230.5 C 237.167,231.167 236.833,231.833 236.5,232.5C 235.833,232.833 235.167,233.167 234.5,233.5C 234.5,231.5 235.5,230.5 237.5,230.5 Z"/></g>
<g><path style="opacity:0.004" fill="#c9cacd" d="M 325.5,236.5 C 325.5,238.5 324.5,239.5 322.5,239.5C 323.167,238.167 324.167,237.167 325.5,236.5 Z"/></g>
<g><path style="opacity:0.016" fill="#bec1c1" d="M 218.5,240.5 C 218.262,242.404 217.262,243.738 215.5,244.5C 215.738,242.596 216.738,241.262 218.5,240.5 Z"/></g>
<g><path style="opacity:1" fill="#283542" d="M 325.5,236.5 C 324.167,237.167 323.167,238.167 322.5,239.5C 322.167,240.167 321.833,240.833 321.5,241.5C 319.973,241.427 318.973,242.094 318.5,243.5C 318.167,244.167 317.833,244.833 317.5,245.5C 315.973,245.427 314.973,246.094 314.5,247.5C 311.54,250.645 308.207,253.312 304.5,255.5C 305.684,254.312 305.684,253.145 304.5,252C 306.725,251.439 308.725,250.439 310.5,249C 309.833,248.667 309.167,248.333 308.5,248C 312.361,248.295 313.694,246.795 312.5,243.5C 314.043,240.61 316.376,238.943 319.5,238.5C 319.5,237.5 319.5,236.5 319.5,235.5C 320.5,235.5 321.5,235.5 322.5,235.5C 322.5,234.5 322.5,233.5 322.5,232.5C 323.552,232.649 324.552,232.483 325.5,232C 325.167,231.667 324.833,231.333 324.5,231C 325.978,228.961 327.978,228.128 330.5,228.5C 331.167,226.5 331.833,224.5 332.5,222.5C 324.036,221.444 315.702,220.444 307.5,219.5C 316.173,219.666 324.84,219.5 333.5,219C 339.897,216.159 341.064,217.659 337,223.5C 333.644,228.35 329.811,232.683 325.5,236.5 Z"/></g>
<g><path style="opacity:0.012" fill="#d1d5d6" d="M 321.5,241.5 C 321.027,242.906 320.027,243.573 318.5,243.5C 318.973,242.094 319.973,241.427 321.5,241.5 Z"/></g>
<g><path style="opacity:0.188" fill="#bbbfc2" d="M 227.5,241.5 C 227.573,243.027 226.906,244.027 225.5,244.5C 225.427,242.973 226.094,241.973 227.5,241.5 Z"/></g>
<g><path style="opacity:0.004" fill="#d5d7d9" d="M 317.5,245.5 C 317.027,246.906 316.027,247.573 314.5,247.5C 314.973,246.094 315.973,245.427 317.5,245.5 Z"/></g>
<g><path style="opacity:0.549" fill="#97989e" d="M 221.5,249.5 C 220.92,251.749 219.587,253.415 217.5,254.5C 218.08,252.251 219.413,250.585 221.5,249.5 Z"/></g>
<g><path style="opacity:0.012" fill="#d6dde0" d="M 157.5,253.5 C 157.59,256.152 156.924,258.485 155.5,260.5C 155.41,257.848 156.076,255.515 157.5,253.5 Z"/></g>
<g><path style="opacity:0.004" fill="#d5d6da" d="M 301.5,257.5 C 301.027,258.906 300.027,259.573 298.5,259.5C 298.973,258.094 299.973,257.427 301.5,257.5 Z"/></g>
<g><path style="opacity:0.11" fill="#9b9fa4" d="M 172.5,252.5 C 174.131,258.138 175.464,263.971 176.5,270C 176.43,270.765 176.097,271.265 175.5,271.5C 174.766,270.292 174.433,268.959 174.5,267.5C 173.574,262.537 172.908,257.537 172.5,252.5 Z"/></g>
<g><path style="opacity:0.125" fill="#9f9fa3" d="M 286.5,264.5 C 285.22,265.931 283.553,266.598 281.5,266.5C 282.78,265.069 284.447,264.402 286.5,264.5 Z"/></g>
<g><path style="opacity:0.255" fill="#b6b7ba" d="M 380.5,265.5 C 380.829,268.228 380.163,270.562 378.5,272.5C 378.721,269.933 379.388,267.599 380.5,265.5 Z"/></g>
<g><path style="opacity:0.165" fill="#c0c2c9" d="M 250.5,270.5 C 246.833,271.167 243.167,271.833 239.5,272.5C 237.897,272.688 236.563,272.188 235.5,271C 240.489,270.501 245.489,270.334 250.5,270.5 Z"/></g>
<g><path style="opacity:0.408" fill="#767c7c" d="M 62.5,270.5 C 63.9238,272.515 64.5905,274.848 64.5,277.5C 63.0762,275.485 62.4095,273.152 62.5,270.5 Z"/></g>
<g><path style="opacity:0.533" fill="#7d7c7b" d="M 284.5,277.5 C 282.735,276.539 280.735,276.205 278.5,276.5C 280.684,275.734 283.018,275.067 285.5,274.5C 286.665,275.86 286.332,276.86 284.5,277.5 Z"/></g>
<g><path style="opacity:1" fill="#25323f" d="M 389.5,166.5 C 388.367,169.271 387.367,172.104 386.5,175C 388.172,178.697 387.005,181.197 383,182.5C 380.485,188.544 381.318,194.044 385.5,199C 384.088,206.301 384.755,213.467 387.5,220.5C 386.167,227.833 386.167,235.167 387.5,242.5C 384.264,250.821 382.931,259.321 383.5,268C 382.079,270.861 381.079,273.861 380.5,277C 380.833,277.333 381.167,277.667 381.5,278C 379.667,278.5 378.5,279.667 378,281.5C 377.667,284.5 377.333,287.5 377,290.5C 374.69,295.058 372.023,299.391 369,303.5C 368.667,305.5 368.333,307.5 368,309.5C 367.667,308.833 367.333,308.167 367,307.5C 364.631,308.927 364.131,310.761 365.5,313C 363.071,314.02 360.737,315.186 358.5,316.5C 361.167,311.833 363.833,307.167 366.5,302.5C 367.906,302.027 368.573,301.027 368.5,299.5C 369.167,297.833 369.833,296.167 370.5,294.5C 372.104,293.713 372.771,292.38 372.5,290.5C 373.512,287.743 374.512,285.076 375.5,282.5C 376.931,281.22 377.598,279.553 377.5,277.5C 378.038,275.883 378.371,274.216 378.5,272.5C 380.163,270.562 380.829,268.228 380.5,265.5C 384.962,239.699 384.296,214.032 378.5,188.5C 378.507,186.631 378.84,184.964 379.5,183.5C 380.906,183.027 381.573,182.027 381.5,180.5C 382.733,175.707 384.733,171.374 387.5,167.5C 388.167,167.167 388.833,166.833 389.5,166.5 Z"/></g>
<g><path style="opacity:1" fill="#152938" d="M 174.5,267.5 C 174.433,268.959 174.766,270.292 175.5,271.5C 178.334,276.107 181.167,280.774 184,285.5C 189.756,280.886 192.256,275.053 191.5,268C 193,267.167 194.167,266 195,264.5C 195.333,264.833 195.667,265.167 196,265.5C 197.087,260.43 198.92,259.763 201.5,263.5C 190.36,281.936 180.36,300.936 171.5,320.5C 171.461,319.417 171.127,318.417 170.5,317.5C 172.719,312.763 173.886,307.763 174,302.5C 177.063,297.987 179.897,293.321 182.5,288.5C 181.311,287.571 179.978,287.238 178.5,287.5C 178.62,285.266 178.287,283.099 177.5,281C 175.766,276.267 173.766,271.767 171.5,267.5C 171.167,267.167 170.833,266.833 170.5,266.5C 170.024,269.119 168.691,271.119 166.5,272.5C 165.5,272.167 164.833,271.5 164.5,270.5C 165.052,268.667 165.885,267 167,265.5C 168.297,261.846 167.297,259.179 164,257.5C 163.535,258.931 162.701,260.097 161.5,261C 161.957,261.414 162.291,261.914 162.5,262.5C 160.464,274.273 159.297,274.273 159,262.5C 154.592,277.801 154.759,293.135 159.5,308.5C 159.272,310.207 158.938,311.874 158.5,313.5C 155.787,308.631 154.454,303.298 154.5,297.5C 154.5,288.5 154.5,279.5 154.5,270.5C 154.616,267.14 154.949,263.807 155.5,260.5C 156.924,258.485 157.59,256.152 157.5,253.5C 158.172,249.812 159.005,246.145 160,242.5C 160.414,242.043 160.914,241.709 161.5,241.5C 165.316,250.465 169.649,259.132 174.5,267.5 Z"/></g>
<g><path style="opacity:0.004" fill="#d0d2d3" d="M 284.5,277.5 C 284.5,279.5 283.5,280.5 281.5,280.5C 282.167,279.167 283.167,278.167 284.5,277.5 Z"/></g>
<g><path style="opacity:0.082" fill="#adb5b7" d="M 377.5,277.5 C 377.598,279.553 376.931,281.22 375.5,282.5C 375.402,280.447 376.069,278.78 377.5,277.5 Z"/></g>
<g><path style="opacity:0.118" fill="#aeb0b2" d="M 91.5,281.5 C 92.6737,282.514 93.3404,283.847 93.5,285.5C 91.8958,284.713 91.2291,283.38 91.5,281.5 Z"/></g>
<g><path style="opacity:0.247" fill="#777986" d="M 65.5,282.5 C 66.3094,283.469 67.3094,284.302 68.5,285C 67.8617,286.707 67.8617,288.54 68.5,290.5C 66.7329,288.208 65.7329,285.542 65.5,282.5 Z"/></g>
<g><path style="opacity:0.398" fill="#797f83" d="M 154.5,270.5 C 154.5,279.5 154.5,288.5 154.5,297.5C 152.527,288.358 152.527,279.358 154.5,270.5 Z"/></g>
<g><path style="opacity:0.098" fill="#c5c6c6" d="M 372.5,290.5 C 372.771,292.38 372.104,293.713 370.5,294.5C 370.66,292.847 371.326,291.514 372.5,290.5 Z"/></g>
<g><path style="opacity:1" fill="#263440" d="M 406.5,199.5 C 412.763,234.183 409.096,267.85 395.5,300.5C 394.326,301.514 393.66,302.847 393.5,304.5C 392.736,307.018 391.736,309.351 390.5,311.5C 389.094,311.973 388.427,312.973 388.5,314.5C 387.59,317.992 385.924,320.992 383.5,323.5C 383.461,322.417 383.127,321.417 382.5,320.5C 384.201,315.969 386.534,311.802 389.5,308C 389.075,305.983 389.075,304.149 389.5,302.5C 390.706,299.921 392.039,297.421 393.5,295C 393.384,293.732 393.051,292.398 392.5,291C 393.45,288.09 395.45,286.923 398.5,287.5C 398.5,286.5 398.5,285.5 398.5,284.5C 397.448,284.649 396.448,284.483 395.5,284C 397.694,282.447 398.86,280.281 399,277.5C 400.011,276.663 401.178,276.33 402.5,276.5C 404.787,261.586 406.454,246.586 407.5,231.5C 406.872,219.773 406.038,208.106 405,196.5C 405.232,197.737 405.732,198.737 406.5,199.5 Z"/></g>
<g><path style="opacity:0.078" fill="#c3c4c7" d="M 368.5,299.5 C 368.573,301.027 367.906,302.027 366.5,302.5C 366.427,300.973 367.094,299.973 368.5,299.5 Z"/></g>
<g><path style="opacity:0.102" fill="#a3a5ab" d="M 395.5,300.5 C 395.771,302.38 395.104,303.713 393.5,304.5C 393.66,302.847 394.326,301.514 395.5,300.5 Z"/></g>
<g><path style="opacity:0.212" fill="#969ba2" d="M 103.5,307.5 C 104.906,307.973 105.573,308.973 105.5,310.5C 104.094,310.027 103.427,309.027 103.5,307.5 Z"/></g>
<g><path style="opacity:0.078" fill="#bec2ca" d="M 105.5,310.5 C 106.906,310.973 107.573,311.973 107.5,313.5C 106.094,313.027 105.427,312.027 105.5,310.5 Z"/></g>
<g><path style="opacity:0.067" fill="#a7aaaa" d="M 390.5,311.5 C 390.573,313.027 389.906,314.027 388.5,314.5C 388.427,312.973 389.094,311.973 390.5,311.5 Z"/></g>
<g><path style="opacity:0.071" fill="#bcc5d0" d="M 214.5,315.5 C 213.833,316.167 213.167,316.833 212.5,317.5C 211.448,317.649 210.448,317.483 209.5,317C 211.025,315.991 212.692,315.491 214.5,315.5 Z"/></g>
<g><path style="opacity:0.153" fill="#a7abb0" d="M 109.5,316.5 C 110.906,316.973 111.573,317.973 111.5,319.5C 110.094,319.027 109.427,318.027 109.5,316.5 Z"/></g>
<g><path style="opacity:0.106" fill="#767984" d="M 212.5,317.5 C 218.349,318.196 224.016,319.196 229.5,320.5C 223.497,320.667 217.83,319.667 212.5,317.5 Z"/></g>
<g><path style="opacity:0.059" fill="#b7c3c3" d="M 81.5,319.5 C 82.9063,319.973 83.573,320.973 83.5,322.5C 82.0937,322.027 81.427,321.027 81.5,319.5 Z"/></g>
<g><path style="opacity:0.31" fill="#93979b" d="M 111.5,319.5 C 113.262,320.262 114.262,321.596 114.5,323.5C 112.738,322.738 111.738,321.404 111.5,319.5 Z"/></g>
<g><path style="opacity:0.78" fill="#808789" d="M 84.5,324.5 C 86.522,325.507 87.8553,327.174 88.5,329.5C 86.478,328.493 85.1447,326.826 84.5,324.5 Z"/></g>
<g><path style="opacity:0.784" fill="#41474d" d="M 231.5,320.5 C 232.675,320.281 233.675,320.614 234.5,321.5C 228.748,324.75 222.748,327.416 216.5,329.5C 216.918,328.778 217.584,328.278 218.5,328C 217.833,327.667 217.167,327.333 216.5,327C 222.164,325.822 227.164,323.655 231.5,320.5 Z"/></g>
<g><path style="opacity:0.345" fill="#93999a" d="M 353.5,323.5 C 352.92,325.749 351.587,327.415 349.5,328.5C 350.08,326.251 351.413,324.585 353.5,323.5 Z"/></g>
<g><path style="opacity:0.114" fill="#a3a1a8" d="M 212.5,330.5 C 211.22,331.931 209.553,332.598 207.5,332.5C 208.78,331.069 210.447,330.402 212.5,330.5 Z"/></g>
<g><path style="opacity:1" fill="#08253a" d="M 236.5,232.5 C 236.414,233.496 236.748,234.329 237.5,235C 236.531,236.758 235.364,237.258 234,236.5C 232.354,238.055 232.021,239.721 233,241.5C 229.59,244.155 226.757,247.321 224.5,251C 224.833,251.333 225.167,251.667 225.5,252C 223.351,253.164 221.185,254.33 219,255.5C 219.017,257.568 220.017,259.234 222,260.5C 222.368,259.09 223.201,258.09 224.5,257.5C 226.5,258.176 228.667,258.176 231,257.5C 234.389,258.835 237.722,260.168 241,261.5C 244.85,260.869 248.683,260.202 252.5,259.5C 253.308,259.808 253.975,260.308 254.5,261C 259.833,261.333 265.167,261.667 270.5,262C 271.098,264.048 272.431,265.215 274.5,265.5C 275.213,264.034 276.88,262.867 279.5,262C 283.887,261.294 288.22,261.46 292.5,262.5C 290.698,263.458 288.698,264.125 286.5,264.5C 284.447,264.402 282.78,265.069 281.5,266.5C 271.443,268.935 261.11,270.268 250.5,270.5C 245.489,270.334 240.489,270.501 235.5,271C 236.563,272.188 237.897,272.688 239.5,272.5C 252.298,276.146 265.298,277.48 278.5,276.5C 280.735,276.205 282.735,276.539 284.5,277.5C 283.167,278.167 282.167,279.167 281.5,280.5C 262.707,298.553 240.374,310.22 214.5,315.5C 212.692,315.491 211.025,315.991 209.5,317C 210.448,317.483 211.448,317.649 212.5,317.5C 217.83,319.667 223.497,320.667 229.5,320.5C 230.167,320.5 230.833,320.5 231.5,320.5C 227.164,323.655 222.164,325.822 216.5,327C 217.167,327.333 217.833,327.667 218.5,328C 217.584,328.278 216.918,328.778 216.5,329.5C 215.167,329.833 213.833,330.167 212.5,330.5C 210.447,330.402 208.78,331.069 207.5,332.5C 206.081,333.451 204.415,333.784 202.5,333.5C 196.933,333.899 191.599,334.899 186.5,336.5C 184.517,336.157 183.183,336.824 182.5,338.5C 179.315,344.041 176.315,349.708 173.5,355.5C 172.094,355.973 171.427,356.973 171.5,358.5C 170.736,361.018 169.736,363.351 168.5,365.5C 167.115,366.947 167.448,367.947 169.5,368.5C 174.613,370.223 179.613,372.223 184.5,374.5C 185.78,375.931 187.447,376.598 189.5,376.5C 191.515,377.924 193.848,378.59 196.5,378.5C 226.646,385.078 256.313,383.412 285.5,373.5C 288.241,373.293 290.574,372.293 292.5,370.5C 295.378,368.895 298.378,367.561 301.5,366.5C 300.133,368.142 299.799,369.808 300.5,371.5C 298.009,372.541 298.009,373.374 300.5,374C 299.663,375.011 299.33,376.178 299.5,377.5C 300.833,377.5 302.167,377.5 303.5,377.5C 303.719,378.675 303.386,379.675 302.5,380.5C 300.146,381.06 297.813,381.727 295.5,382.5C 298.512,382.956 301.512,383.29 304.5,383.5C 305.429,384.689 305.762,386.022 305.5,387.5C 303.974,389.13 301.974,389.963 299.5,390C 298.167,391 298.167,392 299.5,393C 296.51,393.897 293.51,394.731 290.5,395.5C 289.611,397.007 288.611,398.34 287.5,399.5C 285.883,400.038 284.216,400.371 282.5,400.5C 280.214,400.595 278.214,401.262 276.5,402.5C 254.768,408.668 232.768,410.002 210.5,406.5C 207.953,405.001 205.286,403.501 202.5,402C 199.183,401.502 195.85,401.335 192.5,401.5C 192.628,399.345 192.128,397.345 191,395.5C 187.437,398.621 183.937,398.788 180.5,396C 183.167,395 183.167,394 180.5,393C 176.98,393.007 173.646,393.174 170.5,393.5C 167.893,392.863 165.56,391.696 163.5,390C 161.098,389.186 158.765,389.353 156.5,390.5C 156.047,394.607 154.547,398.274 152,401.5C 151.358,408.355 150.192,415.022 148.5,421.5C 146.042,421.227 144.375,422.227 143.5,424.5C 140.914,425.48 138.247,425.813 135.5,425.5C 135.762,426.978 135.429,428.311 134.5,429.5C 133.575,430.641 132.741,430.641 132,429.5C 132.569,424.482 132.402,419.482 131.5,414.5C 133.865,403.352 136.865,392.352 140.5,381.5C 140.145,380.478 139.478,379.811 138.5,379.5C 137.738,377.738 136.404,376.738 134.5,376.5C 131.865,375.189 129.531,373.522 127.5,371.5C 126.415,369.413 124.749,368.08 122.5,367.5C 121.833,367.5 121.5,367.167 121.5,366.5C 121.027,365.094 120.027,364.427 118.5,364.5C 115.388,362.273 112.721,359.606 110.5,356.5C 112.742,354.795 112.742,352.795 110.5,350.5C 111.326,349.549 111.492,348.549 111,347.5C 110.167,348.5 109.333,349.5 108.5,350.5C 107.359,348.579 107.192,346.579 108,344.5C 110.055,344.848 112.055,344.181 114,342.5C 113.624,338.548 113.958,334.548 115,330.5C 116.667,331.5 118.333,332.5 120,333.5C 120.167,334.333 120.333,335.167 120.5,336C 119.715,337.79 119.715,339.457 120.5,341C 118.866,341.494 117.199,341.66 115.5,341.5C 115.5,343.5 115.5,345.5 115.5,347.5C 117.5,347.5 119.5,347.5 121.5,347.5C 121.351,346.448 121.517,345.448 122,344.5C 122.333,344.833 122.667,345.167 123,345.5C 124.487,344.747 124.654,343.914 123.5,343C 125.866,342.56 128.199,342.06 130.5,341.5C 134.127,343.794 137.461,346.46 140.5,349.5C 141.326,351.264 142.659,352.598 144.5,353.5C 145.492,353.328 146.158,353.662 146.5,354.5C 147.287,356.104 148.62,356.771 150.5,356.5C 150.5,355.5 150.5,354.5 150.5,353.5C 153.35,343.442 156.517,333.442 160,323.5C 160.434,320.032 159.934,316.698 158.5,313.5C 158.938,311.874 159.272,310.207 159.5,308.5C 154.759,293.135 154.592,277.801 159,262.5C 159.297,274.273 160.464,274.273 162.5,262.5C 162.291,261.914 161.957,261.414 161.5,261C 162.701,260.097 163.535,258.931 164,257.5C 167.297,259.179 168.297,261.846 167,265.5C 165.885,267 165.052,268.667 164.5,270.5C 164.833,271.5 165.5,272.167 166.5,272.5C 168.691,271.119 170.024,269.119 170.5,266.5C 170.833,266.833 171.167,267.167 171.5,267.5C 173.766,271.767 175.766,276.267 177.5,281C 178.287,283.099 178.62,285.266 178.5,287.5C 179.978,287.238 181.311,287.571 182.5,288.5C 179.897,293.321 177.063,297.987 174,302.5C 173.886,307.763 172.719,312.763 170.5,317.5C 171.127,318.417 171.461,319.417 171.5,320.5C 169.559,326.657 167.226,332.657 164.5,338.5C 163.069,339.78 162.402,341.447 162.5,343.5C 161.545,345.746 160.878,348.079 160.5,350.5C 158.674,352.455 158.174,354.788 159,357.5C 159.513,356.473 160.013,355.473 160.5,354.5C 160.5,354.167 160.5,353.833 160.5,353.5C 166.324,344.528 171.657,335.194 176.5,325.5C 177.674,324.486 178.34,323.153 178.5,321.5C 180.067,316.039 182.4,311.039 185.5,306.5C 186.906,306.027 187.573,305.027 187.5,303.5C 196.034,286.175 206.034,269.842 217.5,254.5C 219.587,253.415 220.92,251.749 221.5,249.5C 222.08,247.251 223.413,245.585 225.5,244.5C 226.906,244.027 227.573,243.027 227.5,241.5C 229.382,238.377 231.715,235.711 234.5,233.5C 235.167,233.167 235.833,232.833 236.5,232.5 Z"/></g>
<g><path style="opacity:0.063" fill="#c4c4c6" d="M 178.5,321.5 C 178.34,323.153 177.674,324.486 176.5,325.5C 176.229,323.62 176.896,322.287 178.5,321.5 Z"/></g>
<g><path style="opacity:0.125" fill="#b8babf" d="M 187.5,303.5 C 187.573,305.027 186.906,306.027 185.5,306.5C 185.427,304.973 186.094,303.973 187.5,303.5 Z"/></g>
<g><path style="opacity:0.137" fill="#797c80" d="M 202.5,333.5 C 197.458,335.42 192.125,336.42 186.5,336.5C 191.599,334.899 196.933,333.899 202.5,333.5 Z"/></g>
<g><path style="opacity:0.102" fill="#a1a7ab" d="M 186.5,336.5 C 185.329,337.345 183.995,338.011 182.5,338.5C 183.183,336.824 184.517,336.157 186.5,336.5 Z"/></g>
<g><path style="opacity:0.02" fill="#c1c1c4" d="M 375.5,335.5 C 375.573,337.027 374.906,338.027 373.5,338.5C 373.427,336.973 374.094,335.973 375.5,335.5 Z"/></g>
<g><path style="opacity:0.231" fill="#8f9296" d="M 341.5,337.5 C 340.5,339.167 339.167,340.5 337.5,341.5C 337.833,339.167 339.167,337.833 341.5,337.5 Z"/></g>
<g><path style="opacity:0.137" fill="#c0c2c2" d="M 164.5,338.5 C 164.598,340.553 163.931,342.22 162.5,343.5C 162.402,341.447 163.069,339.78 164.5,338.5 Z"/></g>
<g><path style="opacity:0.58" fill="#919797" d="M 140.5,349.5 C 142.773,349.957 144.106,351.29 144.5,353.5C 142.659,352.598 141.326,351.264 140.5,349.5 Z"/></g>
<g><path style="opacity:0.016" fill="#a5a8ad" d="M 150.5,353.5 C 150.5,354.5 150.5,355.5 150.5,356.5C 148.62,356.771 147.287,356.104 146.5,354.5C 147.496,354.414 148.329,354.748 149,355.5C 149.278,354.584 149.778,353.918 150.5,353.5 Z"/></g>
<g><path style="opacity:0.063" fill="#9fa6b0" d="M 160.5,350.5 C 160.5,351.5 160.5,352.5 160.5,353.5C 159.167,353.833 159.167,354.167 160.5,354.5C 160.013,355.473 159.513,356.473 159,357.5C 158.174,354.788 158.674,352.455 160.5,350.5 Z"/></g>
<g><path style="opacity:0.11" fill="#c4c5cb" d="M 173.5,355.5 C 173.573,357.027 172.906,358.027 171.5,358.5C 171.427,356.973 172.094,355.973 173.5,355.5 Z"/></g>
<g><path style="opacity:0.141" fill="#b5babe" d="M 389.5,360.5 C 385.5,359.167 381.5,359.167 377.5,360.5C 379.117,359.028 381.117,358.361 383.5,358.5C 385.883,358.361 387.883,359.028 389.5,360.5 Z"/></g>
<g><path style="opacity:0.404" fill="#a2a5a8" d="M 118.5,364.5 C 120.027,364.427 121.027,365.094 121.5,366.5C 119.973,366.573 118.973,365.906 118.5,364.5 Z"/></g>
<g><path style="opacity:0.051" fill="#a5afbd" d="M 168.5,365.5 C 168.557,366.609 168.89,367.609 169.5,368.5C 167.448,367.947 167.115,366.947 168.5,365.5 Z"/></g>
<g><path style="opacity:0.561" fill="#8e9198" d="M 122.5,367.5 C 124.749,368.08 126.415,369.413 127.5,371.5C 125.251,370.92 123.585,369.587 122.5,367.5 Z"/></g>
<g><path style="opacity:0.125" fill="#aeb2b7" d="M 292.5,370.5 C 290.574,372.293 288.241,373.293 285.5,373.5C 287.426,371.707 289.759,370.707 292.5,370.5 Z"/></g>
<g><path style="opacity:0.161" fill="#adaeb3" d="M 184.5,374.5 C 186.553,374.402 188.22,375.069 189.5,376.5C 187.447,376.598 185.78,375.931 184.5,374.5 Z"/></g>
<g><path style="opacity:0.482" fill="#a5a2a5" d="M 134.5,376.5 C 136.404,376.738 137.738,377.738 138.5,379.5C 136.596,379.262 135.262,378.262 134.5,376.5 Z"/></g>
<g><path style="opacity:0.271" fill="#767d82" d="M 189.5,376.5 C 192.152,376.41 194.485,377.076 196.5,378.5C 193.848,378.59 191.515,377.924 189.5,376.5 Z"/></g>
<g><path style="opacity:1" fill="#36424e" d="M 349.5,383.5 C 345.263,380.772 341.429,377.439 338,373.5C 335.213,374.805 332.713,376.472 330.5,378.5C 330.5,377.167 330.5,375.833 330.5,374.5C 332.929,374.415 334.929,373.415 336.5,371.5C 338.115,372.154 339.782,372.654 341.5,373C 343.839,376.84 347.172,379.34 351.5,380.5C 350.418,380.749 349.085,380.915 347.5,381C 348.381,381.708 349.047,382.542 349.5,383.5 Z"/></g>
<g><path style="opacity:0.071" fill="#bec5c6" d="M 318.5,385.5 C 317.713,387.104 316.38,387.771 314.5,387.5C 315.514,386.326 316.847,385.66 318.5,385.5 Z"/></g>
<g><path style="opacity:1" fill="#1d2d3a" d="M 210.5,406.5 C 195.801,405.263 181.801,401.596 168.5,395.5C 167.486,394.326 166.153,393.66 164.5,393.5C 162.506,392.65 160.506,392.15 158.5,392C 157.413,394.567 156.413,397.067 155.5,399.5C 154.076,401.515 153.41,403.848 153.5,406.5C 153.087,412.403 151.754,418.069 149.5,423.5C 143.179,426.326 137.179,429.659 131.5,433.5C 129.876,433.36 128.71,434.027 128,435.5C 127.506,433.866 127.34,432.199 127.5,430.5C 128.768,428.095 129.435,425.428 129.5,422.5C 129.802,419.627 130.469,416.961 131.5,414.5C 132.402,419.482 132.569,424.482 132,429.5C 132.741,430.641 133.575,430.641 134.5,429.5C 135.429,428.311 135.762,426.978 135.5,425.5C 138.247,425.813 140.914,425.48 143.5,424.5C 144.375,422.227 146.042,421.227 148.5,421.5C 150.192,415.022 151.358,408.355 152,401.5C 154.547,398.274 156.047,394.607 156.5,390.5C 158.765,389.353 161.098,389.186 163.5,390C 165.56,391.696 167.893,392.863 170.5,393.5C 173.646,393.174 176.98,393.007 180.5,393C 183.167,394 183.167,395 180.5,396C 183.937,398.788 187.437,398.621 191,395.5C 192.128,397.345 192.628,399.345 192.5,401.5C 195.85,401.335 199.183,401.502 202.5,402C 205.286,403.501 207.953,405.001 210.5,406.5 Z"/></g>
<g><path style="opacity:0.071" fill="#bcc5c5" d="M 164.5,393.5 C 166.153,393.66 167.486,394.326 168.5,395.5C 166.62,395.771 165.287,395.104 164.5,393.5 Z"/></g>
<g><path style="opacity:0.973" fill="#27343f" d="M 328.5,379.5 C 325.758,382.421 322.425,384.421 318.5,385.5C 316.847,385.66 315.514,386.326 314.5,387.5C 306.168,392.829 297.168,396.829 287.5,399.5C 288.611,398.34 289.611,397.007 290.5,395.5C 293.51,394.731 296.51,393.897 299.5,393C 298.167,392 298.167,391 299.5,390C 301.974,389.963 303.974,389.13 305.5,387.5C 307.482,387.005 309.482,386.505 311.5,386C 313.949,383.69 316.615,381.69 319.5,380C 322.511,380.802 325.511,380.635 328.5,379.5 Z"/></g>
<g><path style="opacity:0.29" fill="#91959b" d="M 282.5,400.5 C 280.898,402.074 278.898,402.741 276.5,402.5C 278.214,401.262 280.214,400.595 282.5,400.5 Z"/></g>
<g><path style="opacity:0.361" fill="#949a9d" d="M 155.5,399.5 C 155.59,402.152 154.924,404.485 153.5,406.5C 153.41,403.848 154.076,401.515 155.5,399.5 Z"/></g>
<g><path style="opacity:0.992" fill="#37404c" d="M 429.5,399.5 C 435.779,405.113 441.779,411.113 447.5,417.5C 443.808,417.676 441.808,416.009 441.5,412.5C 440.167,412.5 438.833,412.5 437.5,412.5C 437.649,411.448 437.483,410.448 437,409.5C 434,407.833 431.667,405.5 430,402.5C 429.667,402.833 429.333,403.167 429,403.5C 428.421,402.072 428.588,400.738 429.5,399.5 Z"/></g>
<g><path style="opacity:0.196" fill="#afb0b5" d="M 129.5,422.5 C 129.435,425.428 128.768,428.095 127.5,430.5C 127.294,427.505 127.96,424.838 129.5,422.5 Z"/></g>
<g><path style="opacity:0.424" fill="#7e7d7c" d="M 127.5,430.5 C 127.34,432.199 127.506,433.866 128,435.5C 128.71,434.027 129.876,433.36 131.5,433.5C 130.708,435.257 129.375,436.591 127.5,437.5C 126.203,435.027 126.203,432.693 127.5,430.5 Z"/></g>
<g><path style="opacity:1" fill="#21303f" d="M 451.5,421.5 C 458.284,426.78 463.784,433.113 468,440.5C 468.916,451.948 465.083,461.281 456.5,468.5C 456.489,466.983 455.823,465.816 454.5,465C 455.981,464.02 457.315,462.853 458.5,461.5C 459.192,462.025 459.692,462.692 460,463.5C 464.529,455.81 466.363,447.477 465.5,438.5C 461.83,438.506 459.163,436.839 457.5,433.5C 454.888,433.985 454.888,433.151 457.5,431C 457,430.5 456.5,430 456,429.5C 453.333,432.167 450.667,432.167 448,429.5C 447.86,427.479 447.693,425.645 447.5,424C 448,423.5 448.5,423 449,422.5C 450.461,423.883 451.294,423.549 451.5,421.5 Z"/></g>
<g><path style="opacity:0.008" fill="#c4c7ca" d="M 419.5,467.5 C 420.833,468.167 421.833,469.167 422.5,470.5C 420.5,470.5 419.5,469.5 419.5,467.5 Z"/></g>
<g><path style="opacity:0.004" fill="#c5c8c6" d="M 423.5,471.5 C 424.5,471.833 425.167,472.5 425.5,473.5C 424.167,473.5 423.5,472.833 423.5,471.5 Z"/></g>
<g><path style="opacity:0.075" fill="#b8b9be" d="M 443.5,475.5 C 439.956,477.569 436.29,477.902 432.5,476.5C 436.198,476.448 439.865,476.114 443.5,475.5 Z"/></g>
</svg>
