<svg xmlns="http://www.w3.org/2000/svg" width="1024" height="1024" viewBox="0 0 1024 1024" version="1.1"><path d="M 684.717 144.588 C 668.786 159.876, 645.915 176.496, 629.424 184.767 C 626.166 186.401, 617.875 190.088, 611 192.960 C 584.516 204.025, 541.223 226.156, 524 237.434 C 497.250 254.950, 487.641 271.060, 479.522 312 C 477.923 320.064, 477.064 322.753, 476.648 321 C 475.336 315.467, 473.051 292.856, 472.784 282.758 C 472.628 276.850, 472.226 272.012, 471.891 272.008 C 470.541 271.990, 447.107 297.024, 441.624 304.343 C 429.350 320.725, 420.825 336.014, 415.886 350.500 C 413.814 356.579, 413.517 359.211, 413.628 370.500 C 413.712 379.135, 414.436 386.857, 415.781 393.500 C 416.896 399, 417.669 403.644, 417.500 403.820 C 416.254 405.119, 400 371.741, 400 367.883 C 400 365.042, 398.217 368.867, 396.216 376 C 391.310 393.495, 390.516 399.671, 390.562 420 C 390.609 441.100, 391.861 448.503, 397.280 459.736 L 399.728 464.811 393.398 482.829 C 389.916 492.739, 386.544 502.925, 385.905 505.464 C 385.265 508.003, 384.368 509.950, 383.910 509.790 C 383.452 509.631, 378.331 505.732, 372.530 501.126 C 333.926 470.476, 308.715 425.405, 302.981 376.787 C 301.047 360.389, 302.196 331.704, 305.395 316.500 C 313.232 279.254, 330.167 247.244, 355.741 221.339 C 405.928 170.500, 481.480 152.457, 549.434 175.081 C 555.998 177.267, 566.263 181.480, 572.245 184.445 L 583.121 189.836 598.811 183.259 C 607.440 179.641, 614.902 176.328, 615.394 175.897 C 616.658 174.788, 599.556 163.928, 586.500 157.549 C 509.948 120.146, 418.162 130.250, 352.500 183.308 C 341.299 192.359, 324.714 209.676, 315.922 221.500 C 294.034 250.936, 280.799 282.234, 273.845 321 C 271.721 332.841, 272.040 378.819, 274.331 391 C 278.640 413.914, 283.731 429.461, 293.489 449.500 C 305.176 473.502, 321.544 496.023, 339.581 512.917 C 346.534 519.430, 367.902 536.167, 372.671 538.836 C 374.254 539.721, 374.083 540.782, 370.532 552.149 C 366.903 563.768, 358.116 597.886, 356.574 606.347 L 355.873 610.194 362.101 605.154 C 365.527 602.382, 372.057 598.023, 376.613 595.466 L 384.896 590.816 386.020 585.158 C 387.514 577.636, 392.543 558.230, 393.926 554.648 C 394.557 553.014, 395.556 552.018, 396.264 552.315 C 396.944 552.600, 401.775 554.637, 407 556.842 C 420.326 562.466, 437.270 567.412, 452.500 570.123 C 469.658 573.178, 504.480 573.468, 521.088 570.695 C 552.766 565.406, 581.858 553.966, 607.932 536.545 L 618.814 529.275 628.039 538.539 C 637.207 547.745, 637.257 547.823, 636.132 551.051 C 634.596 555.458, 634.708 560.543, 636.415 563.800 C 638.438 567.661, 726.825 654.330, 731.013 656.560 C 733.264 657.758, 736.644 658.431, 740.552 658.458 C 745.609 658.493, 747.887 657.866, 754.410 654.642 C 768.405 647.725, 778.791 634.569, 779.793 622.488 C 780.600 612.750, 779.738 611.497, 755.129 586.664 C 715.183 546.354, 681.491 514.161, 678.450 513.398 C 676.893 513.007, 673.597 513.228, 671.126 513.889 L 666.635 515.090 658.860 507.361 L 651.085 499.631 654.979 495.407 C 657.121 493.083, 661.566 487.551, 664.857 483.112 C 685.712 454.985, 699.173 421.800, 704.653 385 C 706.736 371.015, 706.985 340.809, 705.130 327 C 702.495 307.382, 695.920 283.238, 688.945 267.577 L 686.753 262.653 677.842 281.047 L 668.931 299.442 671.416 309.971 C 675.045 325.351, 676.185 335.593, 676.204 353 C 676.240 385.853, 670.319 411.509, 656.240 439.500 C 630.021 491.627, 579.855 529.002, 522 539.512 C 509.480 541.787, 476.854 542.658, 464.601 541.045 C 447.088 538.740, 427.862 533.335, 412.212 526.319 L 405.924 523.500 412.895 509.500 C 416.730 501.800, 421.506 492.913, 423.510 489.750 C 426.818 484.531, 427.479 484, 430.670 484 C 441.079 484, 466.132 476.926, 481.459 469.660 L 490.417 465.412 478.959 464.193 C 472.656 463.522, 465.277 462.394, 462.560 461.686 L 457.620 460.400 464.560 458.548 C 487.272 452.487, 510.952 442.257, 525.729 432.124 C 540.322 422.117, 560.326 404.544, 552.133 408.929 C 547.779 411.259, 532.307 412.396, 521.709 411.164 C 512.062 410.042, 494.651 406.023, 491.288 404.141 C 490.385 403.636, 495.714 403.018, 504.642 402.594 C 534.732 401.164, 550.365 398.004, 565.163 390.362 C 576.929 384.285, 585.552 377.676, 597.500 365.576 C 605.808 357.163, 620 340.126, 620 338.565 C 620 338.331, 618.700 338.512, 617.111 338.968 C 611.274 340.642, 595.384 341.165, 585 340.025 C 574.387 338.859, 556.631 335.423, 554.155 334.056 C 553.415 333.648, 561.065 333.034, 571.155 332.693 C 581.245 332.351, 593.649 331.381, 598.719 330.537 C 628.281 325.614, 649.171 309.675, 663.449 281.148 C 665.472 277.104, 666.968 273.634, 666.771 273.438 C 666.575 273.242, 663.508 274.045, 659.957 275.224 C 654.441 277.055, 651.169 277.368, 637.500 277.374 C 620.003 277.382, 611.727 275.855, 622.601 274.625 C 648.513 271.693, 669.048 260.387, 681.359 242.274 C 689.639 230.091, 697.322 208.298, 699.918 189.633 C 702.265 172.758, 700.665 146.568, 696.713 137.168 L 695.487 134.253 684.717 144.588 M 646.500 210.667 C 635.750 220.659, 610.053 241.289, 582.500 262.049 C 535.066 297.788, 514.505 315.341, 492.948 338.500 C 455.556 378.670, 427.492 423.395, 406.667 476 C 400.733 490.991, 394.972 508.479, 395.018 511.362 C 395.069 514.525, 407.825 492.191, 421.212 465.500 C 439.022 429.990, 444.814 419.672, 458.545 399 C 485.936 357.762, 513.642 328.880, 566 286.983 C 604.447 256.218, 627.591 235.923, 639.074 222.906 C 647.077 213.835, 653.966 204.876, 652.809 205.045 C 652.639 205.070, 649.800 207.600, 646.500 210.667 M 354.230 715.015 C 335.350 719.962, 317.449 734.279, 309.238 751 C 303.798 762.078, 301.827 770.888, 301.845 784.041 C 301.890 817.342, 320.364 843.673, 350.645 853.598 C 358.504 856.174, 360.905 856.500, 372 856.500 C 385.141 856.500, 393.957 854.613, 403.453 849.769 L 407.430 847.740 417.573 858.221 L 427.716 868.701 436.608 860.435 L 445.500 852.168 439.989 846.334 C 436.958 843.125, 432.739 838.623, 430.614 836.329 L 426.749 832.159 431.783 824.633 C 440.786 811.172, 444.605 796.741, 443.739 779.450 C 442.220 749.111, 420.299 722.621, 390.377 714.968 C 380.162 712.356, 364.301 712.376, 354.230 715.015 M 843.216 715.019 C 829.474 718.619, 815.055 727.931, 806.457 738.758 C 801.118 745.480, 794.773 758.187, 792.853 766 C 790.865 774.091, 791.107 795.885, 793.274 804 C 797.770 820.833, 809.513 837.092, 823.601 845.990 C 839.191 855.836, 857.595 859.159, 875.792 855.414 C 885.901 853.333, 891.746 850.828, 901.693 844.315 C 915.665 835.164, 924.994 822.640, 929.850 806.513 C 932.987 796.095, 933.412 776.129, 930.712 766 C 924.092 741.161, 904.046 721.278, 879.226 714.930 C 869.160 712.355, 853.231 712.395, 843.216 715.019 M 103 785 L 103 854 117.500 854 L 132 854 132 785 L 132 716 117.500 716 L 103 716 103 785 M 163 785 L 163 854 177.146 854 L 191.292 854 190.775 809.021 C 190.491 784.282, 190.537 764.216, 190.879 764.429 C 191.220 764.643, 205.225 784.882, 222 809.405 L 252.500 853.992 266.250 853.996 L 280 854 280 785 L 280 716 266.010 716 L 252.021 716 251.760 760.579 L 251.500 805.158 239.494 787.329 C 232.891 777.523, 219.179 757.462, 209.024 742.750 L 190.558 716 176.779 716 L 163 716 163 785 M 465 763.951 C 465 794.996, 465.388 813.770, 466.102 817.201 C 469.041 831.341, 479.104 844.126, 492.178 850.330 C 526.927 866.823, 566.616 851.183, 574.460 817.907 C 575.695 812.667, 575.973 802.804, 575.985 763.750 L 576 716 562 716 L 548 716 548 759.451 C 548 787.783, 547.609 804.745, 546.877 808.201 C 544.856 817.737, 540.719 823.529, 533 827.632 C 530.337 829.048, 527.348 829.493, 520.500 829.496 C 512.530 829.500, 510.977 829.193, 506.930 826.813 C 504.416 825.335, 501.174 822.410, 499.726 820.313 C 494.377 812.569, 494 808.617, 494 760.290 L 494 716 479.500 716 L 465 716 465 763.951 M 606 785 L 606 854 620.500 854 L 635 854 635 785 L 635 716 620.500 716 L 606 716 606 785 M 666 784.920 L 666 854 680 854 L 694 854 694 830.500 L 694 807 705.750 807.020 L 717.500 807.039 731.500 830.481 L 745.500 853.923 761.250 853.962 C 769.913 853.983, 777 853.804, 777 853.565 C 777 853.326, 770.291 841.965, 762.090 828.317 L 747.181 803.504 752.045 800.696 C 768.687 791.088, 776.929 776.468, 775.716 758.709 C 774.700 743.844, 765.061 729.620, 751.455 722.909 C 739.417 716.971, 737.510 716.724, 700.250 716.263 L 666 715.840 666 784.920 M 363.618 741.048 C 357.060 742.696, 348.092 748.104, 343.562 753.143 C 334.258 763.490, 330.102 779.720, 332.933 794.647 C 334.932 805.190, 337.987 811.170, 344.909 818.091 C 353.389 826.572, 359.969 829.378, 371.500 829.431 C 379.366 829.467, 387.394 827.640, 386.802 825.950 C 386.636 825.476, 382.592 820.860, 377.816 815.692 L 369.132 806.295 373.816 801.885 C 376.392 799.460, 380.196 795.922, 382.268 794.024 L 386.037 790.572 396.352 800.852 L 406.667 811.133 409.352 805.150 C 414.628 793.394, 415.225 779.898, 411.017 767.500 C 407.342 756.672, 397.104 745.990, 387 742.440 C 381.447 740.489, 368.832 739.739, 363.618 741.048 M 852.746 741.022 C 843.341 743.398, 834.340 749.752, 829.037 757.757 C 819.357 772.372, 819.331 796.933, 828.981 811.971 C 837.878 825.835, 855.115 832.648, 871.002 828.578 C 890.457 823.594, 902.019 807.359, 901.988 785.068 C 901.961 765.609, 893.568 750.904, 878.450 743.830 C 871.327 740.497, 859.806 739.238, 852.746 741.022 M 694 761.921 L 694 782 710.750 781.994 C 728.510 781.989, 732.730 781.331, 738.064 777.736 C 743.327 774.189, 745.500 769.569, 745.500 761.927 C 745.500 753.526, 742.421 748.369, 735.316 744.871 C 730.879 742.687, 729.063 742.474, 712.250 742.171 L 694 741.841 694 761.921" stroke="none" fill="#042338" fill-rule="evenodd"/><path d="M 0 512.001 L 0 1024.002 512.250 1023.751 L 1024.500 1023.500 1024.751 511.750 L 1025.002 0 512.501 0 L 0 0 0 512.001 M 0.496 512.500 C 0.496 794.100, 0.610 909.151, 0.750 768.168 C 0.890 627.186, 0.890 396.786, 0.750 256.168 C 0.610 115.551, 0.496 230.900, 0.496 512.500 M 684.717 144.588 C 668.786 159.876, 645.915 176.496, 629.424 184.767 C 626.166 186.401, 617.875 190.088, 611 192.960 C 584.516 204.025, 541.223 226.156, 524 237.434 C 497.250 254.950, 487.641 271.060, 479.522 312 C 477.923 320.064, 477.064 322.753, 476.648 321 C 475.336 315.467, 473.051 292.856, 472.784 282.758 C 472.628 276.850, 472.226 272.012, 471.891 272.008 C 470.541 271.990, 447.107 297.024, 441.624 304.343 C 429.350 320.725, 420.825 336.014, 415.886 350.500 C 413.814 356.579, 413.517 359.211, 413.628 370.500 C 413.712 379.135, 414.436 386.857, 415.781 393.500 C 416.896 399, 417.669 403.644, 417.500 403.820 C 416.254 405.119, 400 371.741, 400 367.883 C 400 365.042, 398.217 368.867, 396.216 376 C 391.310 393.495, 390.516 399.671, 390.562 420 C 390.609 441.100, 391.861 448.503, 397.280 459.736 L 399.728 464.811 393.398 482.829 C 389.916 492.739, 386.544 502.925, 385.905 505.464 C 385.265 508.003, 384.368 509.950, 383.910 509.790 C 383.452 509.631, 378.331 505.732, 372.530 501.126 C 333.926 470.476, 308.715 425.405, 302.981 376.787 C 301.047 360.389, 302.196 331.704, 305.395 316.500 C 313.232 279.254, 330.167 247.244, 355.741 221.339 C 405.928 170.500, 481.480 152.457, 549.434 175.081 C 555.998 177.267, 566.263 181.480, 572.245 184.445 L 583.121 189.836 598.811 183.259 C 607.440 179.641, 614.902 176.328, 615.394 175.897 C 616.658 174.788, 599.556 163.928, 586.500 157.549 C 509.948 120.146, 418.162 130.250, 352.500 183.308 C 341.299 192.359, 324.714 209.676, 315.922 221.500 C 294.034 250.936, 280.799 282.234, 273.845 321 C 271.721 332.841, 272.040 378.819, 274.331 391 C 278.640 413.914, 283.731 429.461, 293.489 449.500 C 305.176 473.502, 321.544 496.023, 339.581 512.917 C 346.534 519.430, 367.902 536.167, 372.671 538.836 C 374.254 539.721, 374.083 540.782, 370.532 552.149 C 366.903 563.768, 358.116 597.886, 356.574 606.347 L 355.873 610.194 362.101 605.154 C 365.527 602.382, 372.057 598.023, 376.613 595.466 L 384.896 590.816 386.020 585.158 C 387.514 577.636, 392.543 558.230, 393.926 554.648 C 394.557 553.014, 395.556 552.018, 396.264 552.315 C 396.944 552.600, 401.775 554.637, 407 556.842 C 420.326 562.466, 437.270 567.412, 452.500 570.123 C 469.658 573.178, 504.480 573.468, 521.088 570.695 C 552.766 565.406, 581.858 553.966, 607.932 536.545 L 618.814 529.275 628.039 538.539 C 637.207 547.745, 637.257 547.823, 636.132 551.051 C 634.596 555.458, 634.708 560.543, 636.415 563.800 C 638.438 567.661, 726.825 654.330, 731.013 656.560 C 733.264 657.758, 736.644 658.431, 740.552 658.458 C 745.609 658.493, 747.887 657.866, 754.410 654.642 C 768.405 647.725, 778.791 634.569, 779.793 622.488 C 780.600 612.750, 779.738 611.497, 755.129 586.664 C 715.183 546.354, 681.491 514.161, 678.450 513.398 C 676.893 513.007, 673.597 513.228, 671.126 513.889 L 666.635 515.090 658.860 507.361 L 651.085 499.631 654.979 495.407 C 657.121 493.083, 661.566 487.551, 664.857 483.112 C 685.712 454.985, 699.173 421.800, 704.653 385 C 706.736 371.015, 706.985 340.809, 705.130 327 C 702.495 307.382, 695.920 283.238, 688.945 267.577 L 686.753 262.653 677.842 281.047 L 668.931 299.442 671.416 309.971 C 675.045 325.351, 676.185 335.593, 676.204 353 C 676.240 385.853, 670.319 411.509, 656.240 439.500 C 630.021 491.627, 579.855 529.002, 522 539.512 C 509.480 541.787, 476.854 542.658, 464.601 541.045 C 447.088 538.740, 427.862 533.335, 412.212 526.319 L 405.924 523.500 412.895 509.500 C 416.730 501.800, 421.506 492.913, 423.510 489.750 C 426.818 484.531, 427.479 484, 430.670 484 C 441.079 484, 466.132 476.926, 481.459 469.660 L 490.417 465.412 478.959 464.193 C 472.656 463.522, 465.277 462.394, 462.560 461.686 L 457.620 460.400 464.560 458.548 C 487.272 452.487, 510.952 442.257, 525.729 432.124 C 540.322 422.117, 560.326 404.544, 552.133 408.929 C 547.779 411.259, 532.307 412.396, 521.709 411.164 C 512.062 410.042, 494.651 406.023, 491.288 404.141 C 490.385 403.636, 495.714 403.018, 504.642 402.594 C 534.732 401.164, 550.365 398.004, 565.163 390.362 C 576.929 384.285, 585.552 377.676, 597.500 365.576 C 605.808 357.163, 620 340.126, 620 338.565 C 620 338.331, 618.700 338.512, 617.111 338.968 C 611.274 340.642, 595.384 341.165, 585 340.025 C 574.387 338.859, 556.631 335.423, 554.155 334.056 C 553.415 333.648, 561.065 333.034, 571.155 332.693 C 581.245 332.351, 593.649 331.381, 598.719 330.537 C 628.281 325.614, 649.171 309.675, 663.449 281.148 C 665.472 277.104, 666.968 273.634, 666.771 273.438 C 666.575 273.242, 663.508 274.045, 659.957 275.224 C 654.441 277.055, 651.169 277.368, 637.500 277.374 C 620.003 277.382, 611.727 275.855, 622.601 274.625 C 648.513 271.693, 669.048 260.387, 681.359 242.274 C 689.639 230.091, 697.322 208.298, 699.918 189.633 C 702.265 172.758, 700.665 146.568, 696.713 137.168 L 695.487 134.253 684.717 144.588 M 646.500 210.667 C 635.750 220.659, 610.053 241.289, 582.500 262.049 C 535.066 297.788, 514.505 315.341, 492.948 338.500 C 455.556 378.670, 427.492 423.395, 406.667 476 C 400.733 490.991, 394.972 508.479, 395.018 511.362 C 395.069 514.525, 407.825 492.191, 421.212 465.500 C 439.022 429.990, 444.814 419.672, 458.545 399 C 485.936 357.762, 513.642 328.880, 566 286.983 C 604.447 256.218, 627.591 235.923, 639.074 222.906 C 647.077 213.835, 653.966 204.876, 652.809 205.045 C 652.639 205.070, 649.800 207.600, 646.500 210.667 M 354.230 715.015 C 335.350 719.962, 317.449 734.279, 309.238 751 C 303.798 762.078, 301.827 770.888, 301.845 784.041 C 301.890 817.342, 320.364 843.673, 350.645 853.598 C 358.504 856.174, 360.905 856.500, 372 856.500 C 385.141 856.500, 393.957 854.613, 403.453 849.769 L 407.430 847.740 417.573 858.221 L 427.716 868.701 436.608 860.435 L 445.500 852.168 439.989 846.334 C 436.958 843.125, 432.739 838.623, 430.614 836.329 L 426.749 832.159 431.783 824.633 C 440.786 811.172, 444.605 796.741, 443.739 779.450 C 442.220 749.111, 420.299 722.621, 390.377 714.968 C 380.162 712.356, 364.301 712.376, 354.230 715.015 M 843.216 715.019 C 829.474 718.619, 815.055 727.931, 806.457 738.758 C 801.118 745.480, 794.773 758.187, 792.853 766 C 790.865 774.091, 791.107 795.885, 793.274 804 C 797.770 820.833, 809.513 837.092, 823.601 845.990 C 839.191 855.836, 857.595 859.159, 875.792 855.414 C 885.901 853.333, 891.746 850.828, 901.693 844.315 C 915.665 835.164, 924.994 822.640, 929.850 806.513 C 932.987 796.095, 933.412 776.129, 930.712 766 C 924.092 741.161, 904.046 721.278, 879.226 714.930 C 869.160 712.355, 853.231 712.395, 843.216 715.019 M 103 785 L 103 854 117.500 854 L 132 854 132 785 L 132 716 117.500 716 L 103 716 103 785 M 163 785 L 163 854 177.146 854 L 191.292 854 190.775 809.021 C 190.491 784.282, 190.537 764.216, 190.879 764.429 C 191.220 764.643, 205.225 784.882, 222 809.405 L 252.500 853.992 266.250 853.996 L 280 854 280 785 L 280 716 266.010 716 L 252.021 716 251.760 760.579 L 251.500 805.158 239.494 787.329 C 232.891 777.523, 219.179 757.462, 209.024 742.750 L 190.558 716 176.779 716 L 163 716 163 785 M 465 763.951 C 465 794.996, 465.388 813.770, 466.102 817.201 C 469.041 831.341, 479.104 844.126, 492.178 850.330 C 526.927 866.823, 566.616 851.183, 574.460 817.907 C 575.695 812.667, 575.973 802.804, 575.985 763.750 L 576 716 562 716 L 548 716 548 759.451 C 548 787.783, 547.609 804.745, 546.877 808.201 C 544.856 817.737, 540.719 823.529, 533 827.632 C 530.337 829.048, 527.348 829.493, 520.500 829.496 C 512.530 829.500, 510.977 829.193, 506.930 826.813 C 504.416 825.335, 501.174 822.410, 499.726 820.313 C 494.377 812.569, 494 808.617, 494 760.290 L 494 716 479.500 716 L 465 716 465 763.951 M 606 785 L 606 854 620.500 854 L 635 854 635 785 L 635 716 620.500 716 L 606 716 606 785 M 666 784.920 L 666 854 680 854 L 694 854 694 830.500 L 694 807 705.750 807.020 L 717.500 807.039 731.500 830.481 L 745.500 853.923 761.250 853.962 C 769.913 853.983, 777 853.804, 777 853.565 C 777 853.326, 770.291 841.965, 762.090 828.317 L 747.181 803.504 752.045 800.696 C 768.687 791.088, 776.929 776.468, 775.716 758.709 C 774.700 743.844, 765.061 729.620, 751.455 722.909 C 739.417 716.971, 737.510 716.724, 700.250 716.263 L 666 715.840 666 784.920 M 363.618 741.048 C 357.060 742.696, 348.092 748.104, 343.562 753.143 C 334.258 763.490, 330.102 779.720, 332.933 794.647 C 334.932 805.190, 337.987 811.170, 344.909 818.091 C 353.389 826.572, 359.969 829.378, 371.500 829.431 C 379.366 829.467, 387.394 827.640, 386.802 825.950 C 386.636 825.476, 382.592 820.860, 377.816 815.692 L 369.132 806.295 373.816 801.885 C 376.392 799.460, 380.196 795.922, 382.268 794.024 L 386.037 790.572 396.352 800.852 L 406.667 811.133 409.352 805.150 C 414.628 793.394, 415.225 779.898, 411.017 767.500 C 407.342 756.672, 397.104 745.990, 387 742.440 C 381.447 740.489, 368.832 739.739, 363.618 741.048 M 852.746 741.022 C 843.341 743.398, 834.340 749.752, 829.037 757.757 C 819.357 772.372, 819.331 796.933, 828.981 811.971 C 837.878 825.835, 855.115 832.648, 871.002 828.578 C 890.457 823.594, 902.019 807.359, 901.988 785.068 C 901.961 765.609, 893.568 750.904, 878.450 743.830 C 871.327 740.497, 859.806 739.238, 852.746 741.022 M 694 761.921 L 694 782 710.750 781.994 C 728.510 781.989, 732.730 781.331, 738.064 777.736 C 743.327 774.189, 745.500 769.569, 745.500 761.927 C 745.500 753.526, 742.421 748.369, 735.316 744.871 C 730.879 742.687, 729.063 742.474, 712.250 742.171 L 694 741.841 694 761.921" stroke="none" fill="#f3ece3" fill-rule="evenodd"/></svg>